<svg width="186" height="30" viewBox="0 0 186 30" fill="none" xmlns="http://www.w3.org/2000/svg">
<path d="M35.3174 1.94603C35.2246 1.8764 35.1265 1.80676 35.0273 1.74293C34.8706 1.64427 34.7081 1.55142 34.5398 1.46438C34.4586 1.42375 34.3773 1.38313 34.2903 1.34831L34.1742 1.29609C34.064 1.24966 33.9537 1.20904 33.8376 1.16842C33.7216 1.1278 33.5939 1.09298 33.472 1.05816L33.3908 1.03495C33.2637 1.00593 33.1355 0.982725 33.0078 0.959512C32.8975 0.942103 32.7873 0.924691 32.677 0.913085L32.5203 0.901482C32.3933 0.889876 32.265 0.88407 32.1315 0.88407L29.288 0.872466L4.5554 0.768009C4.24204 0.768009 3.93507 0.797022 3.63853 0.860856C3.18589 0.953705 2.75646 1.11619 2.36244 1.34251C2.01367 1.53401 1.6887 1.77774 1.40435 2.06209C1.10259 2.36385 0.841443 2.70623 0.638336 3.08343C0.580306 3.19369 0.522287 3.30975 0.476443 3.42581L0.468311 3.44496C0.42827 3.53781 0.391716 3.6324 0.357477 3.72815L0.319168 3.82622L0.284358 3.94925C0.262887 4.02237 0.240832 4.09548 0.222843 4.17034L0.208916 4.22083C0.188025 4.31832 0.170038 4.42104 0.15379 4.52201C0.118391 4.74195 0.0945955 4.96594 0.0928546 5.19574L0.0412136 17.9973L0.00580873 26.3594L0 27.3867V28.1586H0.638336L10.6834 28.1991L10.695 26.4002L10.7241 18.0379V17.6781L10.7299 16.9006L11.3508 17.1094L14.1827 18.0553L16.3008 18.7632L18.4247 18.0728L21.8833 16.9468L21.8775 18.09L21.8717 19.8137L21.8601 22.953L21.8427 26.4467L21.8369 27.8219V28.2454L29.2648 28.2746L29.2706 26.4757L29.3054 18.1193L29.3577 6.00817C29.3635 4.13959 30.8491 2.56115 32.7176 2.53794C33.5417 2.53214 34.3077 2.82229 34.9054 3.30975L34.9106 3.31439L34.9031 3.31033C34.9942 3.38461 35.0812 3.46237 35.1642 3.54593C35.531 3.91617 35.8107 4.37113 35.9767 4.87716C36.0881 5.21548 36.1496 5.57585 36.1473 5.95014L36.0916 19.8733L36.0596 27.6379C36.0591 27.7602 36.1008 27.8688 36.1583 27.9681L36.2517 28.1121C36.3736 28.2281 36.5419 28.3093 36.7276 28.3093C37.0932 28.3093 37.3949 28.0135 37.3949 27.6419L37.482 6.27511C37.4936 4.50518 36.6405 2.92675 35.3174 1.94603Z" fill="white"/>
<path d="M17.9954 26.6495L18.0825 27.1602L17.1018 26.6438L16.2777 26.2143L15.4653 26.6379L14.473 27.1602L14.5658 26.6379L14.8212 25.1525L13.7186 24.079L13.3588 23.7308L15.3782 23.4347L16.2777 21.6067L17.183 23.4347L19.1967 23.7308L18.8195 24.102L17.7407 25.1525L17.9954 26.6495ZM11.8848 18.508L11.8384 28.9591H12.0995L20.6706 29L20.6822 26.6613L20.6939 24.108L20.7171 18.9723V18.5486L16.2951 19.9819L11.8848 18.508Z" fill="white"/>
<path d="M49.848 23.344C48.7551 23.344 47.8071 23.1399 47.0039 22.7317C46.2139 22.3104 45.6016 21.7047 45.1671 20.9147C44.7457 20.1247 44.535 19.1635 44.535 18.0311V17.3003H47.7347V18.2088C47.7347 18.8409 47.919 19.3544 48.2877 19.7494C48.6695 20.1312 49.1896 20.3222 49.848 20.3222C50.4932 20.3222 51.0001 20.1312 51.3688 19.7494C51.7506 19.3544 51.9416 18.8409 51.9416 18.2088V10.9801H55.1807V18.0311C55.1807 19.1635 54.9634 20.1247 54.5289 20.9147C54.1075 21.7047 53.4953 22.3104 52.6921 22.7317C51.9021 23.1399 50.954 23.344 49.848 23.344ZM46.2139 11.3751V8.55075H55.1807V11.3751H46.2139ZM64.0996 23.344C62.7961 23.344 61.6571 23.1202 60.6828 22.6725C59.7216 22.2116 58.925 21.6125 58.2929 20.8752C57.6609 20.1247 57.1869 19.3149 56.8709 18.4458C56.5681 17.5768 56.4166 16.7407 56.4166 15.9375V15.503C56.4166 14.6076 56.5746 13.7254 56.8906 12.8564C57.2198 11.9742 57.707 11.1776 58.3522 10.4666C58.9974 9.75554 59.8006 9.18935 60.7618 8.768C61.723 8.33349 62.8356 8.11623 64.0996 8.11623C65.3637 8.11623 66.4763 8.33349 67.4375 8.768C68.3987 9.18935 69.2019 9.75554 69.8471 10.4666C70.4923 11.1776 70.9795 11.9742 71.3087 12.8564C71.6378 13.7254 71.8024 14.6076 71.8024 15.503V15.9375C71.8024 16.7407 71.6444 17.5768 71.3284 18.4458C71.0124 19.3149 70.5384 20.1247 69.9064 20.8752C69.2743 21.6125 68.4711 22.2116 67.4968 22.6725C66.5356 23.1202 65.4032 23.344 64.0996 23.344ZM64.0996 20.3222C64.7843 20.3222 65.3966 20.2037 65.9365 19.9666C66.4895 19.7296 66.9569 19.4005 67.3388 18.9791C67.7338 18.5578 68.03 18.0706 68.2275 17.5176C68.4251 16.9645 68.5238 16.372 68.5238 15.74C68.5238 15.0685 68.4185 14.4562 68.2078 13.9032C68.0103 13.337 67.714 12.8498 67.319 12.4416C66.9372 12.0203 66.4763 11.6977 65.9365 11.4738C65.3966 11.25 64.7843 11.1381 64.0996 11.1381C63.415 11.1381 62.8027 11.25 62.2628 11.4738C61.723 11.6977 61.2555 12.0203 60.8605 12.4416C60.4787 12.8498 60.189 13.337 59.9915 13.9032C59.794 14.4562 59.6952 15.0685 59.6952 15.74C59.6952 16.372 59.794 16.9645 59.9915 17.5176C60.189 18.0706 60.4787 18.5578 60.8605 18.9791C61.2555 19.4005 61.723 19.7296 62.2628 19.9666C62.8027 20.2037 63.415 20.3222 64.0996 20.3222ZM79.3128 23.344C77.9566 23.344 76.8044 23.0938 75.8564 22.5935C74.9215 22.08 74.2105 21.3558 73.7233 20.4209C73.2361 19.486 72.9926 18.38 72.9926 17.1028V8.55075H76.2317V17.2213C76.2317 17.8533 76.3502 18.4063 76.5872 18.8804C76.8374 19.3412 77.1863 19.6967 77.634 19.9469C78.0948 20.1971 78.6544 20.3222 79.3128 20.3222C79.9843 20.3222 80.5439 20.1971 80.9916 19.9469C81.4524 19.6967 81.8014 19.3412 82.0384 18.8804C82.2754 18.4195 82.3939 17.8665 82.3939 17.2213V8.55075H85.633V17.1028C85.633 18.38 85.3894 19.486 84.9022 20.4209C84.415 21.3558 83.704 22.08 82.7691 22.5935C81.8343 23.0938 80.6822 23.344 79.3128 23.344ZM87.6153 22.9688V8.43224H90.8544V22.9688H87.6153ZM96.3649 22.9688L92.1382 16.767H95.6933L100.118 22.9688H96.3649ZM89.9854 18.3471V15.7992H93.5405C94.0145 15.7992 94.4227 15.7071 94.7651 15.5227C95.1206 15.3252 95.3905 15.0553 95.5748 14.713C95.7723 14.3574 95.8711 13.9493 95.8711 13.4884C95.8711 13.0276 95.7723 12.626 95.5748 12.2836C95.3905 11.9281 95.1206 11.6582 94.7651 11.4738C94.4227 11.2763 94.0145 11.1776 93.5405 11.1776H89.9854V8.43224H93.2838C94.482 8.43224 95.5222 8.61658 96.4044 8.98526C97.2866 9.34077 97.9647 9.87404 98.4387 10.5851C98.9127 11.2961 99.1497 12.1915 99.1497 13.2712V13.5872C99.1497 14.6537 98.9061 15.5425 98.4189 16.2535C97.9449 16.9514 97.2668 17.4781 96.3846 17.8336C95.5156 18.1759 94.482 18.3471 93.2838 18.3471H89.9854ZM101.055 22.9688V8.55075H106.368L111.799 20.3419H112.471L112.076 20.6974V8.55075H115.118V22.9688H109.765L104.334 11.1776H103.662L104.057 10.8221V22.9688H101.055ZM116.006 22.9688L120.766 8.55075H126L130.937 22.9688H127.58L123.59 10.7826L124.617 11.1973H122.069L123.136 10.7826L119.245 22.9688H116.006ZM119.62 19.3939L120.608 16.7078H126.256L127.264 19.3939H119.62ZM131.831 22.9688V8.55075H135.07V22.9688H131.831ZM134.675 22.9688V20.1247H140.718V22.9688H134.675Z" fill="white"/>
<path d="M145.791 23.0569L150.551 8.63891H155.785L160.722 23.0569H157.365L153.375 10.8707L154.402 11.2855H151.854L152.921 10.8707L149.03 23.0569H145.791ZM149.405 19.482L150.393 16.7959H156.042L157.049 19.482H149.405ZM164.46 18.929V16.1244H167.047C167.548 16.1244 167.975 16.0257 168.331 15.8282C168.7 15.6307 168.983 15.3541 169.18 14.9986C169.378 14.63 169.476 14.2086 169.476 13.7346C169.476 13.2342 169.378 12.8063 169.18 12.4508C168.983 12.0821 168.7 11.8056 168.331 11.6213C167.975 11.4238 167.548 11.325 167.047 11.325H164.46V8.52041H166.889C168.114 8.52041 169.16 8.7245 170.03 9.13268C170.912 9.54086 171.583 10.1202 172.044 10.8707C172.518 11.6213 172.755 12.5232 172.755 13.5766V13.8926C172.755 14.9196 172.518 15.815 172.044 16.5787C171.583 17.3292 170.912 17.9086 170.03 18.3167C169.16 18.7249 168.114 18.929 166.889 18.929H164.46ZM161.616 23.0569V8.52041H164.855V23.0569H161.616ZM176.646 18.929V16.1244H179.233C179.734 16.1244 180.161 16.0257 180.517 15.8282C180.886 15.6307 181.169 15.3541 181.366 14.9986C181.564 14.63 181.663 14.2086 181.663 13.7346C181.663 13.2342 181.564 12.8063 181.366 12.4508C181.169 12.0821 180.886 11.8056 180.517 11.6213C180.161 11.4238 179.734 11.325 179.233 11.325H176.646V8.52041H179.075C180.3 8.52041 181.347 8.7245 182.216 9.13268C183.098 9.54086 183.769 10.1202 184.23 10.8707C184.704 11.6213 184.941 12.5232 184.941 13.5766V13.8926C184.941 14.9196 184.704 15.815 184.23 16.5787C183.769 17.3292 183.098 17.9086 182.216 18.3167C181.347 18.7249 180.3 18.929 179.075 18.929H176.646ZM173.802 23.0569V8.52041H177.041V23.0569H173.802Z" fill="white"/>
</svg>
