<svg width="111" height="48" viewBox="0 0 111 48" fill="none" xmlns="http://www.w3.org/2000/svg">
<path d="M48.1972 0.828756C48.3207 0.57912 48.5117 0.36912 48.7485 0.22262C48.9854 0.076121 49.2586 -0.00100385 49.5371 9.8658e-06C49.769 -0.00058039 49.9978 0.053843 50.2046 0.158812C50.3811 0.245851 50.5385 0.367018 50.6679 0.515307C50.7973 0.663595 50.896 0.836061 50.9583 1.02273C51.0206 1.2094 51.0453 1.40657 51.0309 1.60284C51.0165 1.7991 50.9633 1.99057 50.8745 2.16616L31.2972 41.3827C31.1199 41.7381 30.8086 42.0085 30.4319 42.1343C30.0553 42.2602 29.644 42.2313 29.2886 42.0539C28.9333 41.8766 28.6629 41.5653 28.5371 41.1886C28.4112 40.812 28.4401 40.4007 28.6175 40.0453L37.4682 22.3166L35.7114 18.8999L30.4586 29.1178C29.2725 31.4155 27.1337 32.7876 24.7516 32.7876C22.3696 32.7876 20.201 31.413 19.0199 29.1153L13.7496 18.89L7.61593 30.7455C7.29233 31.3725 6.80229 31.8982 6.19957 32.265C5.59686 32.6318 4.90476 32.8255 4.19921 32.8248C3.53796 32.8246 2.8879 32.6541 2.31165 32.3298C1.7354 32.0055 1.25237 31.5382 0.909084 30.9731C0.565798 30.4079 0.373824 29.7639 0.351653 29.103C0.329482 28.4421 0.477859 27.7867 0.782495 27.1998L8.04271 13.1731C9.21884 10.8829 11.3577 9.51323 13.7496 9.51323C16.1416 9.51323 18.2879 10.8829 19.4566 13.183L24.7392 23.3985L29.9921 13.183C31.1757 10.8829 33.3145 9.51323 35.699 9.51323C38.0835 9.51323 40.2373 10.8829 41.4184 13.183L41.7211 13.7736L48.1972 0.828756Z" fill="url(#paint0_linear_5_83)"/>
<path d="M57.6682 9.51324C60.0651 9.51324 62.1941 10.8854 63.3752 13.1831L68.633 23.3985L73.8858 13.1831C75.0719 10.8829 77.2058 9.51324 79.6052 9.51324C82.0046 9.51324 84.1385 10.8829 85.3121 13.1831L90.5774 23.3985L95.8327 13.1831C96.0579 12.7232 96.3726 12.3129 96.7583 11.9761C97.1439 11.6393 97.5929 11.3829 98.0789 11.2217C98.5649 11.0605 99.0782 10.9978 99.5887 11.0374C100.099 11.0769 100.597 11.2179 101.052 11.452C101.507 11.6861 101.911 12.0087 102.241 12.4009C102.57 12.793 102.818 13.2469 102.969 13.7359C103.121 14.225 103.174 14.7394 103.124 15.249C103.075 15.7586 102.924 16.2533 102.681 16.704L96.2943 29.1104C95.1157 31.408 92.9768 32.7802 90.5873 32.7802C88.1979 32.7802 86.0516 31.408 84.8804 29.1104L79.6052 18.8974L74.3474 29.1153C73.1688 31.413 71.0299 32.7851 68.6404 32.7851C66.2435 32.7851 64.1047 31.413 62.9335 29.1153L57.6682 18.8974L52.4154 29.1153C51.2293 31.413 49.0905 32.7851 46.7084 32.7851C45.5323 32.7877 44.3808 32.449 43.3934 31.81C42.3592 31.1503 41.5272 30.2178 40.9891 29.1153C40.956 29.0491 40.9416 28.975 40.9473 28.9012C40.9529 28.8274 40.9785 28.7564 41.0213 28.696L44.9492 20.8279C44.9705 20.7885 45.002 20.7556 45.0404 20.7326C45.0789 20.7097 45.1228 20.6976 45.1676 20.6976C45.2123 20.6976 45.2562 20.7097 45.2947 20.7326C45.3331 20.7556 45.3646 20.7885 45.3859 20.8279L46.7084 23.4009L51.9613 13.1855C53.1473 10.8854 55.2837 9.51573 57.6806 9.51573L57.6682 9.51324ZM100.912 28.093C100.912 29.0225 101.188 29.931 101.705 30.7035C102.222 31.476 102.956 32.0777 103.815 32.4324C104.674 32.787 105.619 32.8787 106.531 32.6957C107.442 32.5128 108.278 32.0634 108.934 31.4046C109.59 30.7459 110.035 29.9073 110.214 28.9951C110.392 28.083 110.296 27.1384 109.937 26.281C109.579 25.4236 108.973 24.6919 108.198 24.1788C107.423 23.6656 106.514 23.394 105.584 23.3985C104.34 23.3985 103.146 23.8927 102.265 24.7726C101.385 25.6525 100.89 26.8459 100.89 28.0906" fill="white"/>
<path d="M42.6267 41.812H41.3861V38.2117H42.6416C42.8665 38.2056 43.0902 38.2449 43.2995 38.3272C43.5088 38.4094 43.6994 38.533 43.8599 38.6906C44.0295 38.8653 44.1611 39.0732 44.2465 39.3012C44.3319 39.5292 44.3692 39.7724 44.3562 40.0156C44.37 40.2576 44.333 40.5 44.2476 40.7269C44.1621 40.9538 44.03 41.1603 43.8599 41.3331C43.6964 41.4907 43.5032 41.6143 43.2915 41.6965C43.0797 41.7787 42.8538 41.818 42.6267 41.812ZM41.8824 41.3703H42.6267C42.7889 41.375 42.9503 41.3464 43.101 41.2862C43.2516 41.226 43.3883 41.1356 43.5026 41.0205C43.6235 40.8864 43.7165 40.7296 43.7762 40.5592C43.8358 40.3888 43.8609 40.2082 43.85 40.028C43.8738 39.6601 43.7506 39.2978 43.5076 39.0206C43.3956 38.9035 43.2601 38.8113 43.11 38.7502C42.9599 38.689 42.7986 38.6603 42.6367 38.6657H41.8923L41.8824 41.3703Z" fill="white"/>
<path d="M50.2591 41.812H48.0731V38.2116H50.2591V38.6732H48.5694V39.7773H50.1028V40.2438H48.5694V41.3455H50.2591V41.812Z" fill="white"/>
<path d="M56.3531 39.033L55.909 39.1893C55.8799 39.0279 55.7999 38.8801 55.6807 38.7675C55.6093 38.7013 55.5252 38.6503 55.4335 38.6174C55.3418 38.5846 55.2444 38.5707 55.1472 38.5764C54.9665 38.5713 54.7901 38.6322 54.651 38.7476C54.5883 38.7996 54.5379 38.8648 54.5036 38.9386C54.4693 39.0125 54.4518 39.093 54.4525 39.1744C54.4494 39.297 54.4919 39.4163 54.5716 39.5094C54.6625 39.6074 54.7826 39.6735 54.914 39.698L55.4524 39.8146C55.7153 39.8581 55.9572 39.9852 56.1422 40.1769C56.3054 40.3516 56.3943 40.5829 56.3903 40.822C56.3892 40.9635 56.3579 41.1031 56.2984 41.2315C56.2389 41.3599 56.1527 41.4741 56.0454 41.5664C55.7968 41.7812 55.4755 41.893 55.1472 41.879C54.8033 41.8994 54.4647 41.7866 54.2019 41.5639C53.9842 41.3713 53.8425 41.1073 53.8024 40.8195L54.2788 40.6681C54.2945 40.8744 54.3824 41.0685 54.5269 41.2165C54.6078 41.2928 54.7035 41.3517 54.8081 41.3897C54.9126 41.4277 55.0238 41.4439 55.1348 41.4373C55.331 41.4505 55.5254 41.3933 55.6832 41.2761C55.744 41.2268 55.7928 41.1643 55.8259 41.0934C55.859 41.0224 55.8755 40.9449 55.8742 40.8667C55.877 40.7358 55.8279 40.6092 55.7378 40.5143C55.6298 40.4051 55.4899 40.3329 55.3383 40.3084L54.8247 40.1967C54.5821 40.1519 54.3594 40.0331 54.187 39.8568C54.0222 39.683 53.933 39.451 53.9388 39.2116C53.9403 39.07 53.972 38.9302 54.0319 38.8018C54.0918 38.6734 54.1785 38.5593 54.2862 38.4673C54.5125 38.2537 54.8138 38.1378 55.1249 38.1447C55.4306 38.1242 55.7328 38.2199 55.971 38.4127C56.1611 38.5736 56.2949 38.7908 56.3531 39.033V39.033Z" fill="white"/>
<path d="M60.6184 41.812H60.1222V38.2116H60.6184V41.812Z" fill="white"/>
<path d="M67.6876 41.812H67.2856L67.2409 41.3157C67.1384 41.4907 66.9888 41.6334 66.8092 41.7276C66.5886 41.8471 66.3404 41.9061 66.0896 41.8988C65.793 41.9014 65.5004 41.8298 65.2386 41.6904C64.9681 41.5387 64.7455 41.3144 64.5959 41.0428C64.4247 40.7307 64.3391 40.3789 64.3478 40.023C64.3393 39.6661 64.4304 39.3138 64.6108 39.0057C64.767 38.733 64.9965 38.5095 65.2733 38.3605C65.5365 38.2223 65.8296 38.1507 66.1268 38.1521C66.4855 38.1437 66.8378 38.2478 67.1342 38.4499C67.4135 38.6375 67.6201 38.9151 67.7198 39.2364L67.2682 39.43C67.1991 39.1868 67.0506 38.9737 66.8464 38.8245C66.6355 38.6781 66.3835 38.6025 66.1268 38.6087C65.9604 38.607 65.7953 38.6389 65.6414 38.7025C65.4875 38.766 65.348 38.8598 65.2311 38.9784C65.1005 39.1177 64.9997 39.2822 64.9349 39.4618C64.87 39.6414 64.8425 39.8324 64.8539 40.023C64.8421 40.2142 64.8687 40.4058 64.9322 40.5865C64.9957 40.7672 65.0948 40.9333 65.2237 41.0751C65.3378 41.1927 65.4748 41.2855 65.6264 41.3479C65.7779 41.4102 65.9407 41.4406 66.1045 41.4373C66.2741 41.4394 66.4425 41.4091 66.6008 41.348C66.7346 41.2952 66.8531 41.2099 66.9457 41.0999C67.0234 41.009 67.087 40.907 67.1342 40.7972C67.1751 40.7 67.2002 40.597 67.2087 40.492H65.968V40.0478H67.6876V41.812Z" fill="white"/>
<path d="M74.4515 41.812H73.9354L71.9926 38.8816V41.812H71.4963V38.2116H72.1588L73.9553 40.9708V38.2116H74.4515V41.812Z" fill="white"/>
<path d="M84.9176 41.812L84.466 41.3356C84.3462 41.4924 84.1939 41.6215 84.0196 41.714C83.8453 41.8065 83.6531 41.8602 83.4561 41.8715C83.3177 41.8788 83.1793 41.8584 83.049 41.8115C82.9186 41.7647 82.7989 41.6923 82.6968 41.5986C82.6084 41.5162 82.538 41.4163 82.4902 41.3052C82.4423 41.1942 82.4181 41.0744 82.4189 40.9535C82.411 40.7613 82.4649 40.5717 82.5728 40.4126C82.7074 40.2347 82.869 40.079 83.0516 39.951L83.1013 39.9089L83.0368 39.8394C82.9524 39.7501 82.8879 39.6781 82.8407 39.6235C82.7822 39.546 82.7315 39.4629 82.6894 39.3754C82.6358 39.2726 82.6069 39.1588 82.605 39.0429C82.6 38.9195 82.6229 38.7965 82.6718 38.6831C82.7208 38.5698 82.7946 38.4688 82.8879 38.3878C83.0645 38.2277 83.2946 38.1392 83.533 38.1397C83.7845 38.1326 84.0293 38.2213 84.2178 38.3878C84.3065 38.468 84.3764 38.5667 84.4227 38.6769C84.469 38.7871 84.4906 38.9061 84.4858 39.0255C84.4721 39.1881 84.42 39.3451 84.3337 39.4836C84.2474 39.6221 84.1295 39.7381 83.9896 39.822L83.806 39.9585L84.4759 40.6532L85.2773 39.76V40.415L84.7811 40.9783L85.5974 41.8194L84.9176 41.812ZM83.4561 41.415C83.578 41.4172 83.6976 41.3817 83.7985 41.3133C83.9205 41.231 84.0307 41.1325 84.126 41.0205L84.1409 41.0006L83.4114 40.2339L83.2303 40.3704C83.1396 40.4299 83.0646 40.5103 83.0115 40.6049C82.9584 40.6994 82.9288 40.8054 82.9251 40.9138C82.927 41.0447 82.9805 41.1695 83.074 41.2611C83.1229 41.3127 83.1824 41.353 83.2483 41.3796C83.3142 41.4061 83.3851 41.4182 83.4561 41.415V41.415ZM83.0913 39.0082C83.1182 39.2021 83.2164 39.379 83.3668 39.5044L83.4784 39.626L83.7265 39.4424C83.804 39.3957 83.8688 39.3309 83.9155 39.2535C83.9622 39.1761 83.9893 39.0885 83.9945 38.9982C83.9957 38.9404 83.9849 38.883 83.9626 38.8296C83.9404 38.7762 83.9073 38.728 83.8655 38.6881C83.8221 38.6462 83.7708 38.6134 83.7145 38.5917C83.6583 38.5699 83.5983 38.5597 83.538 38.5615C83.4248 38.5611 83.3158 38.6037 83.2328 38.6806C83.1856 38.7206 83.1483 38.771 83.1237 38.8278C83.0992 38.8846 83.0881 38.9464 83.0913 39.0082V39.0082Z" fill="white"/>
<path d="M42.6267 47.4966H41.3861V43.9012H42.6416C42.8665 43.8952 43.0902 43.9345 43.2995 44.0167C43.5088 44.099 43.6994 44.2226 43.8599 44.3801C44.0295 44.5549 44.1611 44.7628 44.2465 44.9908C44.3319 45.2188 44.3692 45.462 44.3562 45.7051C44.3697 45.9468 44.3325 46.1886 44.247 46.4151C44.1616 46.6416 44.0297 46.8477 43.8599 47.0202C43.6965 47.1779 43.5033 47.3012 43.2915 47.383C43.0797 47.4648 42.8537 47.5035 42.6267 47.4966V47.4966ZM41.8824 47.0549H42.6267C42.7889 47.0596 42.9503 47.031 43.101 46.9708C43.2516 46.9107 43.3883 46.8202 43.5026 46.7051C43.6235 46.571 43.7165 46.4142 43.7762 46.2438C43.8358 46.0734 43.8609 45.8928 43.85 45.7126C43.8621 45.5304 43.838 45.3476 43.7792 45.1747C43.7205 45.0019 43.6282 44.8423 43.5076 44.7052C43.3957 44.5877 43.2603 44.4952 43.1102 44.4337C42.9602 44.3721 42.7988 44.3429 42.6367 44.3479H41.8923L41.8824 47.0549Z" fill="white"/>
<path d="M50.2591 47.4966H48.0731V43.9012H50.2591V44.3628H48.5694V45.4669H50.1028V45.9334H48.5694V47.0351H50.2591V47.4966Z" fill="white"/>
<path d="M55.2688 46.8564L56.363 43.9012H56.8866L55.502 47.4966H55.0058L53.651 43.9012H54.1944L55.2688 46.8564Z" fill="white"/>
<path d="M62.6308 47.4966H60.4448V43.9012H62.6308V44.3628H60.9435V45.4669H62.4744V45.9334H60.9435V47.0351H62.6308V47.4966Z" fill="white"/>
<path d="M68.6206 47.4966H66.4247V43.9012H66.9209V47.0301H68.6206V47.4966Z" fill="white"/>
<path d="M71.8412 45.6952C71.8371 45.422 71.8895 45.1508 71.9951 44.8987C72.0875 44.6748 72.2272 44.4734 72.4045 44.3082C72.5738 44.156 72.7687 44.0351 72.9801 43.9509C73.4074 43.7822 73.8828 43.7822 74.3101 43.9509C74.5219 44.0345 74.7168 44.1555 74.8857 44.3082C75.0617 44.4773 75.1982 44.6832 75.2852 44.9111C75.3916 45.163 75.4449 45.4342 75.4416 45.7076C75.4493 46.0644 75.3564 46.416 75.1736 46.7225C75.0146 46.9963 74.7827 47.2205 74.5036 47.3701C74.2358 47.5107 73.9377 47.5842 73.6352 47.5842C73.3326 47.5842 73.0346 47.5107 72.7667 47.3701C72.487 47.2206 72.2542 46.9964 72.0943 46.7225C71.9144 46.4109 71.8267 46.0547 71.8412 45.6952V45.6952ZM72.727 44.6531C72.4817 44.9454 72.3471 45.3148 72.3471 45.6965C72.3471 46.0781 72.4817 46.4475 72.727 46.7398C72.9723 46.9799 73.3019 47.1143 73.6451 47.1143C73.9883 47.1143 74.3179 46.9799 74.5632 46.7398C74.8086 46.4475 74.9431 46.0781 74.9431 45.6965C74.9431 45.3148 74.8086 44.9454 74.5632 44.6531C74.3173 44.4142 73.9879 44.2806 73.6451 44.2806C73.3023 44.2806 72.9729 44.4142 72.727 44.6531Z" fill="white"/>
<path d="M80.496 46.0252H79.6846V47.4966H79.1884V43.9012H80.496C80.643 43.8956 80.7897 43.9195 80.9273 43.9715C81.065 44.0235 81.1908 44.1025 81.2974 44.2039C81.3985 44.3028 81.478 44.4215 81.531 44.5526C81.5839 44.6837 81.6092 44.8244 81.6051 44.9657C81.6099 45.1067 81.5849 45.2472 81.5319 45.378C81.4789 45.5088 81.399 45.627 81.2974 45.725C81.1907 45.8261 81.0648 45.9047 80.9271 45.9563C80.7895 46.0079 80.6429 46.0313 80.496 46.0252ZM79.6846 45.5786H80.4042C80.5882 45.5888 80.7694 45.5305 80.9128 45.4148C80.9746 45.359 81.0233 45.2903 81.0555 45.2135C81.0877 45.1367 81.1025 45.0538 81.0989 44.9707C81.1024 44.886 81.0876 44.8017 81.0555 44.7233C81.0234 44.6449 80.9747 44.5744 80.9128 44.5166C80.7708 44.3978 80.589 44.3375 80.4042 44.3479H79.6846V45.5786Z" fill="white"/>
<path d="M89.1308 47.4966H88.6346V44.6977L87.4088 47.4966H86.9473L85.729 44.6977V47.4966H85.2327V43.9012H85.9076L87.1954 46.8267L88.4733 43.9012H89.1358L89.1308 47.4966Z" fill="white"/>
<path d="M95.272 47.4966H93.086V43.9012H95.272V44.3628H93.5847V45.4669H95.1157V45.9334H93.5847V47.0351H95.272V47.4966Z" fill="white"/>
<path d="M102.031 47.4966H101.515L99.5721 44.5637V47.4966H99.0758V43.9012H99.7408L101.535 46.648V43.9012H102.031V47.4966Z" fill="white"/>
<path d="M108.482 44.3628H107.279V47.4966H106.783V44.3628H105.582V43.9012H108.482V44.3628Z" fill="white"/>
<defs>
<linearGradient id="paint0_linear_5_83" x1="15.3228" y1="12.1905" x2="42.8029" y2="22.4283" gradientUnits="userSpaceOnUse">
<stop stop-color="#38EF7D"/>
<stop offset="1" stop-color="#6EF3A0"/>
</linearGradient>
</defs>
</svg>
