<svg width="230" height="81" viewBox="0 0 230 81" fill="none" xmlns="http://www.w3.org/2000/svg">
<path d="M95.4942 3.18524C95.2432 2.99695 94.978 2.80866 94.7097 2.63606C94.286 2.36932 93.8467 2.11826 93.3917 1.8829C93.172 1.77306 92.9523 1.66322 92.7169 1.56908L92.4031 1.42786C92.105 1.30233 91.8069 1.1925 91.4931 1.08267C91.1792 0.972834 90.834 0.878685 90.5045 0.78454L90.2849 0.721773C89.9412 0.643319 89.5945 0.580568 89.2493 0.517804C88.9511 0.470732 88.653 0.423652 88.3549 0.39227L87.9313 0.360896C87.5876 0.329515 87.2409 0.313816 86.88 0.313816L79.1915 0.282442L12.3173 3.36753e-07C11.47 3.36753e-07 10.64 0.0784505 9.83816 0.251049C8.61428 0.502102 7.45316 0.941452 6.38776 1.55339C5.44474 2.07119 4.56605 2.73021 3.7972 3.49906C2.98128 4.31498 2.27517 5.24073 1.72599 6.26063C1.56908 6.55876 1.4122 6.87258 1.28825 7.18639L1.26626 7.23817C1.15799 7.48922 1.05915 7.74498 0.966578 8.00388L0.862994 8.26906L0.768872 8.60171C0.710816 8.79941 0.651182 8.9971 0.60254 9.19952L0.564884 9.33602C0.508397 9.59963 0.459763 9.87737 0.415829 10.1504C0.320115 10.7451 0.255775 11.3507 0.251068 11.9721L0.111437 46.586L0.0157061 69.1961L0 71.9739V74.0609H1.72599L28.8868 74.1706L28.9181 69.3064L28.9966 46.6957V45.723L29.0123 43.6207L30.6912 44.1851L38.3483 46.7429L44.0755 48.657L49.8183 46.7901L59.17 43.7456L59.1543 46.8367L59.1386 51.4974L59.1073 59.9856L59.0602 69.4321L59.0445 73.1507V74.2956L79.1287 74.3747L79.1444 69.5105L79.2385 46.9158L79.3798 14.1688C79.3955 9.11636 83.4123 4.84846 88.4647 4.78569C90.6928 4.77 92.764 5.55455 94.3801 6.87258L94.3943 6.88512L94.3739 6.87415C94.6202 7.07499 94.8556 7.28524 95.08 7.51118C96.0716 8.51226 96.8279 9.74243 97.2767 11.1107C97.578 12.0254 97.7443 12.9998 97.738 14.0119L97.5874 51.6585L97.5011 72.653C97.4995 72.9839 97.6125 73.2774 97.7678 73.5459L98.0204 73.9352C98.3499 74.249 98.805 74.4684 99.3071 74.4684C100.296 74.4684 101.112 73.6686 101.112 72.6639L101.347 14.8906C101.378 10.1049 99.0717 5.83698 95.4942 3.18524Z" fill="url(#paint0_linear_7_343)"/>
<path d="M48.6571 69.9806L48.8925 71.3614L46.2407 69.9652L44.0126 68.8038L41.8159 69.9492L39.1328 71.3614L39.3838 69.9492L40.0742 65.9328L37.093 63.03L36.1202 62.0886L41.5805 61.288L44.0126 56.3454L46.4604 61.288L51.9051 62.0886L50.8852 63.0925L47.9683 65.9328L48.6571 69.9806ZM32.1347 47.9669L32.0092 76.2255H32.7152L55.8906 76.336L55.922 70.0124L55.9533 63.1085L56.0161 49.2221V48.0765L44.0597 51.952L32.1347 47.9669Z" fill="url(#paint1_linear_7_343)"/>
<path d="M117.626 53.3492C116.296 53.3492 115.143 53.1009 114.167 52.6045C113.206 52.0921 112.461 51.3554 111.933 50.3946C111.42 49.4337 111.164 48.2647 111.164 46.8875V45.9987H115.055V47.1037C115.055 47.8724 115.28 48.4969 115.728 48.9773C116.192 49.4417 116.825 49.6739 117.626 49.6739C118.41 49.6739 119.027 49.4417 119.475 48.9773C119.94 48.4969 120.172 47.8724 120.172 47.1037V38.312H124.111V46.8875C124.111 48.2647 123.847 49.4337 123.319 50.3946C122.806 51.3554 122.061 52.0921 121.085 52.6045C120.124 53.1009 118.971 53.3492 117.626 53.3492ZM113.206 38.7924V35.3574H124.111V38.7924H113.206ZM134.959 53.3492C133.373 53.3492 131.988 53.0769 130.803 52.5324C129.634 51.972 128.665 51.2433 127.896 50.3465C127.128 49.4337 126.551 48.4489 126.167 47.392C125.799 46.335 125.614 45.3181 125.614 44.3413V43.8128C125.614 42.7239 125.807 41.6509 126.191 40.594C126.591 39.5211 127.184 38.5522 127.968 37.6875C128.753 36.8227 129.73 36.1341 130.899 35.6217C132.068 35.0932 133.421 34.829 134.959 34.829C136.496 34.829 137.849 35.0932 139.018 35.6217C140.187 36.1341 141.164 36.8227 141.949 37.6875C142.733 38.5522 143.326 39.5211 143.726 40.594C144.127 41.6509 144.327 42.7239 144.327 43.8128V44.3413C144.327 45.3181 144.135 46.335 143.75 47.392C143.366 48.4489 142.789 49.4337 142.021 50.3465C141.252 51.2433 140.275 51.972 139.09 52.5324C137.921 53.0769 136.544 53.3492 134.959 53.3492ZM134.959 49.6739C135.791 49.6739 136.536 49.5298 137.193 49.2416C137.865 48.9533 138.434 48.553 138.898 48.0405C139.378 47.5281 139.739 46.9356 139.979 46.263C140.219 45.5904 140.339 44.8698 140.339 44.1011C140.339 43.2844 140.211 42.5397 139.955 41.8671C139.715 41.1785 139.354 40.586 138.874 40.0896C138.41 39.5771 137.849 39.1848 137.193 38.9126C136.536 38.6403 135.791 38.5042 134.959 38.5042C134.126 38.5042 133.381 38.6403 132.725 38.9126C132.068 39.1848 131.5 39.5771 131.019 40.0896C130.555 40.586 130.202 41.1785 129.962 41.8671C129.722 42.5397 129.602 43.2844 129.602 44.1011C129.602 44.8698 129.722 45.5904 129.962 46.263C130.202 46.9356 130.555 47.5281 131.019 48.0405C131.5 48.553 132.068 48.9533 132.725 49.2416C133.381 49.5298 134.126 49.6739 134.959 49.6739ZM153.461 53.3492C151.811 53.3492 150.41 53.0449 149.257 52.4364C148.12 51.8118 147.255 50.931 146.663 49.7941C146.07 48.6571 145.774 47.3119 145.774 45.7585V35.3574H149.714V45.9027C149.714 46.6713 149.858 47.3439 150.146 47.9204C150.45 48.4809 150.875 48.9133 151.419 49.2176C151.98 49.5218 152.66 49.6739 153.461 49.6739C154.278 49.6739 154.958 49.5218 155.503 49.2176C156.063 48.9133 156.488 48.4809 156.776 47.9204C157.064 47.3599 157.208 46.6873 157.208 45.9027V35.3574H161.148V45.7585C161.148 47.3119 160.851 48.6571 160.259 49.7941C159.666 50.931 158.802 51.8118 157.665 52.4364C156.528 53.0449 155.126 53.3492 153.461 53.3492ZM163.559 52.8928V35.2133H167.498V52.8928H163.559ZM174.2 52.8928L169.059 45.3502H173.383L178.764 52.8928H174.2ZM166.441 47.2719V44.1731H170.765C171.341 44.1731 171.838 44.061 172.254 43.8369C172.687 43.5966 173.015 43.2684 173.239 42.852C173.479 42.4196 173.599 41.9232 173.599 41.3627C173.599 40.8022 173.479 40.3138 173.239 39.8974C173.015 39.465 172.687 39.1367 172.254 38.9126C171.838 38.6723 171.341 38.5522 170.765 38.5522H166.441V35.2133H170.453C171.91 35.2133 173.175 35.4375 174.248 35.8859C175.321 36.3183 176.146 36.9669 176.722 37.8316C177.299 38.6964 177.587 39.7853 177.587 41.0985V41.4828C177.587 42.7799 177.291 43.8609 176.698 44.7256C176.122 45.5744 175.297 46.2149 174.224 46.6473C173.167 47.0637 171.91 47.2719 170.453 47.2719H166.441ZM179.904 52.8928V35.3574H186.366L192.971 49.698H193.788L193.308 50.1303V35.3574H197.007V52.8928H190.497L183.892 38.5522H183.075L183.555 38.1199V52.8928H179.904ZM198.087 52.8928L203.876 35.3574H210.242L216.247 52.8928H212.164L207.311 38.0718L208.561 38.5763H205.462L206.759 38.0718L202.027 52.8928H198.087ZM202.483 48.545L203.684 45.2781H210.554L211.779 48.545H202.483ZM217.334 52.8928V35.3574H221.273V52.8928H217.334ZM220.793 52.8928V49.4337H228.143V52.8928H220.793Z" fill="#3D409F"/>
<path d="M110.659 73.711L116.449 56.1757H122.814L128.819 73.711H124.736L119.884 58.89L121.133 59.3945H118.034L119.331 58.89L114.599 73.711H110.659ZM115.055 69.3632L116.256 66.0963H123.126L124.351 69.3632H115.055ZM133.365 68.6906V65.2796H136.511C137.12 65.2796 137.64 65.1595 138.073 64.9193C138.521 64.6791 138.866 64.3428 139.106 63.9104C139.346 63.462 139.466 62.9496 139.466 62.3731C139.466 61.7645 139.346 61.2441 139.106 60.8117C138.866 60.3633 138.521 60.027 138.073 59.8028C137.64 59.5626 137.12 59.4425 136.511 59.4425H133.365V56.0315H136.319C137.809 56.0315 139.082 56.2797 140.139 56.7762C141.212 57.2726 142.028 57.9772 142.589 58.89C143.165 59.8028 143.454 60.8998 143.454 62.1809V62.5652C143.454 63.8143 143.165 64.9033 142.589 65.8321C142.028 66.7449 141.212 67.4495 140.139 67.9459C139.082 68.4424 137.809 68.6906 136.319 68.6906H133.365ZM129.906 73.711V56.0315H133.845V73.711H129.906ZM148.185 68.6906V65.2796H151.332C151.941 65.2796 152.461 65.1595 152.894 64.9193C153.342 64.6791 153.686 64.3428 153.927 63.9104C154.167 63.462 154.287 62.9496 154.287 62.3731C154.287 61.7645 154.167 61.2441 153.927 60.8117C153.686 60.3633 153.342 60.027 152.894 59.8028C152.461 59.5626 151.941 59.4425 151.332 59.4425H148.185V56.0315H151.14C152.629 56.0315 153.902 56.2797 154.959 56.7762C156.032 57.2726 156.849 57.9772 157.41 58.89C157.986 59.8028 158.274 60.8998 158.274 62.1809V62.5652C158.274 63.8143 157.986 64.9033 157.41 65.8321C156.849 66.7449 156.032 67.4495 154.959 67.9459C153.902 68.4424 152.629 68.6906 151.14 68.6906H148.185ZM144.726 73.711V56.0315H148.666V73.711H144.726Z" fill="#404040"/>
<defs>
<linearGradient id="paint0_linear_7_343" x1="101.347" y1="74.6088" x2="1.29379" y2="1.29377" gradientUnits="userSpaceOnUse">
<stop stop-color="#3C409F"/>
<stop offset="1" stop-color="#8D40A4"/>
</linearGradient>
<linearGradient id="paint1_linear_7_343" x1="44.0126" y1="76.336" x2="44.0126" y2="47.9669" gradientUnits="userSpaceOnUse">
<stop stop-color="#2472C2"/>
<stop offset="1" stop-color="#69CDDC"/>
</linearGradient>
</defs>
</svg>
