<svg width="87" height="38" viewBox="0 0 87 38" fill="none" xmlns="http://www.w3.org/2000/svg">
<path d="M37.7923 0.65459C37.8899 0.457415 38.0407 0.291548 38.2278 0.175836C38.4149 0.0601239 38.6307 -0.000792886 38.8506 7.79247e-06C39.0338 -0.000458419 39.2145 0.0425276 39.3778 0.125437C39.5172 0.194184 39.6416 0.289888 39.7438 0.407013C39.846 0.524138 39.924 0.66036 39.9732 0.8078C40.0224 0.955241 40.0419 1.11097 40.0305 1.26599C40.0191 1.42101 39.9772 1.57224 39.907 1.71094L24.444 32.686C24.3039 32.9667 24.058 33.1802 23.7605 33.2796C23.463 33.3791 23.1382 33.3562 22.8575 33.2161C22.5768 33.0761 22.3633 32.8302 22.2638 32.5327C22.1644 32.2352 22.1873 31.9103 22.3273 31.6297L29.318 17.6267L27.9305 14.928L23.7815 22.9986C22.8447 24.8134 21.1554 25.8972 19.2739 25.8972C17.3925 25.8972 15.6796 24.8114 14.7467 22.9966L10.5841 14.9202L5.73937 24.2842C5.48377 24.7794 5.09672 25.1947 4.62067 25.4844C4.14462 25.7741 3.59797 25.9271 3.04069 25.9266C2.5184 25.9264 2.00496 25.7917 1.54981 25.5356C1.09466 25.2794 0.713138 24.9104 0.441995 24.464C0.170852 24.0176 0.0192226 23.5089 0.00171054 22.9869C-0.0158015 22.4649 0.101394 21.9472 0.342009 21.4836L6.07646 10.4047C7.00542 8.59581 8.69479 7.51398 10.5841 7.51398C12.4733 7.51398 14.1686 8.59581 15.0917 10.4126L19.2641 18.4812L23.4131 10.4126C24.3479 8.59581 26.0373 7.51398 27.9207 7.51398C29.8041 7.51398 31.5052 8.59581 32.4381 10.4126L32.6772 10.879L37.7923 0.65459Z" fill="url(#paint0_linear_10_173)"/>
<path d="M45.2729 7.51401C47.1661 7.51401 48.8476 8.59779 49.7805 10.4126L53.9334 18.4812L58.0823 10.4126C59.0191 8.59583 60.7046 7.51401 62.5997 7.51401C64.4949 7.51401 66.1803 8.59583 67.1073 10.4126L71.2661 18.4812L75.417 10.4126C75.5949 10.0494 75.8434 9.7253 76.148 9.4593C76.4526 9.19329 76.8072 8.99071 77.1911 8.8634C77.575 8.73608 77.9804 8.6866 78.3836 8.71784C78.7868 8.74908 79.1797 8.86041 79.5394 9.04533C79.8991 9.23024 80.2182 9.48503 80.4783 9.79478C80.7383 10.1045 80.9339 10.463 81.0537 10.8493C81.1736 11.2356 81.2151 11.6418 81.176 12.0444C81.137 12.4469 81.018 12.8376 80.8261 13.1936L75.7815 22.9927C74.8506 24.8075 73.1612 25.8913 71.2739 25.8913C69.3866 25.8913 67.6913 24.8075 66.7663 22.9927L62.5997 14.9261L58.4468 22.9966C57.5159 24.8114 55.8266 25.8952 53.9392 25.8952C52.0461 25.8952 50.3567 24.8114 49.4316 22.9966L45.2729 14.9261L41.1239 22.9966C40.1871 24.8114 38.4978 25.8952 36.6163 25.8952C35.6874 25.8973 34.7779 25.6297 33.998 25.125C33.1811 24.6039 32.5239 23.8674 32.0989 22.9966C32.0728 22.9443 32.0614 22.8858 32.0659 22.8275C32.0704 22.7692 32.0906 22.7132 32.1244 22.6654L35.2268 16.4508C35.2436 16.4197 35.2685 16.3937 35.2989 16.3756C35.3292 16.3575 35.3639 16.3479 35.3993 16.3479C35.4346 16.3479 35.4693 16.3575 35.4997 16.3756C35.5301 16.3937 35.555 16.4197 35.5717 16.4508L36.6163 18.4832L40.7653 10.4146C41.7021 8.59779 43.3895 7.51597 45.2827 7.51597L45.2729 7.51401ZM79.4287 22.1892C79.4288 22.9233 79.6467 23.6409 80.0549 24.2511C80.4631 24.8612 81.0433 25.3365 81.7219 25.6166C82.4004 25.8967 83.1469 25.9691 83.8666 25.8246C84.5864 25.6801 85.2471 25.3252 85.7649 24.8048C86.2828 24.2845 86.6345 23.6221 86.7756 22.9017C86.9167 22.1813 86.8407 21.4352 86.5574 20.7579C86.274 20.0807 85.796 19.5028 85.1839 19.0975C84.5718 18.6922 83.8532 18.4777 83.1191 18.4812C82.136 18.4812 81.1932 18.8716 80.4978 19.5665C79.8025 20.2615 79.4116 21.2041 79.4111 22.1872" fill="url(#paint1_linear_10_173)"/>
<path d="M33.3925 33.025H32.4126V30.1813H33.4043C33.5818 30.1765 33.7586 30.2076 33.9239 30.2725C34.0892 30.3375 34.2398 30.4351 34.3665 30.5596C34.5005 30.6976 34.6044 30.8618 34.6719 31.0419C34.7393 31.222 34.7688 31.4141 34.7585 31.6061C34.7694 31.7973 34.7402 31.9887 34.6727 32.168C34.6052 32.3472 34.5009 32.5103 34.3665 32.6468C34.2374 32.7713 34.0848 32.8689 33.9175 32.9338C33.7503 32.9987 33.5718 33.0297 33.3925 33.025ZM32.8046 32.6762H33.3925C33.5206 32.6799 33.6481 32.6573 33.7671 32.6097C33.8861 32.5622 33.994 32.4908 34.0843 32.3999C34.1798 32.2939 34.2533 32.1701 34.3004 32.0355C34.3475 31.9009 34.3673 31.7583 34.3587 31.6159C34.3775 31.3253 34.2802 31.0392 34.0882 30.8202C33.9998 30.7277 33.8928 30.655 33.7742 30.6067C33.6557 30.5584 33.5283 30.5356 33.4003 30.54H32.8124L32.8046 32.6762Z" fill="#B7B7B7"/>
<path d="M39.4209 33.025H37.6943V30.1813H39.4209V30.5458H38.0863V31.418H39.2975V31.7864H38.0863V32.6566H39.4209V33.025Z" fill="#B7B7B7"/>
<path d="M44.2344 30.8301L43.8836 30.9535C43.8607 30.826 43.7975 30.7093 43.7033 30.6204C43.6469 30.5681 43.5805 30.5278 43.5081 30.5018C43.4356 30.4759 43.3587 30.4649 43.282 30.4694C43.1392 30.4654 42.9999 30.5135 42.89 30.6047C42.8405 30.6457 42.8007 30.6972 42.7736 30.7555C42.7465 30.8138 42.7327 30.8775 42.7332 30.9418C42.7308 31.0385 42.7643 31.1328 42.8273 31.2063C42.8991 31.2837 42.9939 31.3359 43.0977 31.3553L43.523 31.4474C43.7306 31.4818 43.9217 31.5821 44.0678 31.7335C44.1967 31.8716 44.267 32.0543 44.2638 32.2431C44.263 32.3548 44.2382 32.4651 44.1912 32.5665C44.1442 32.6679 44.0761 32.7581 43.9914 32.831C43.795 33.0007 43.5413 33.089 43.282 33.078C43.0103 33.0941 42.7429 33.005 42.5353 32.8291C42.3633 32.677 42.2514 32.4685 42.2197 32.2411L42.596 32.1216C42.6085 32.2845 42.6778 32.4378 42.792 32.5547C42.8559 32.6149 42.9315 32.6615 43.0141 32.6915C43.0966 32.7215 43.1845 32.7343 43.2722 32.7291C43.4271 32.7395 43.5807 32.6944 43.7053 32.6017C43.7533 32.5628 43.7918 32.5135 43.818 32.4574C43.8441 32.4014 43.8572 32.3402 43.8562 32.2784C43.8584 32.175 43.8196 32.075 43.7484 32.0001C43.6631 31.9138 43.5526 31.8568 43.4329 31.8374L43.0272 31.7492C42.8356 31.7138 42.6597 31.62 42.5235 31.4807C42.3934 31.3435 42.3229 31.1602 42.3275 30.9712C42.3286 30.8593 42.3537 30.7489 42.401 30.6475C42.4483 30.5461 42.5168 30.4559 42.6019 30.3832C42.7806 30.2145 43.0186 30.123 43.2643 30.1284C43.5058 30.1123 43.7445 30.1878 43.9326 30.3401C44.0828 30.4672 44.1885 30.6388 44.2344 30.8301V30.8301Z" fill="#B7B7B7"/>
<path d="M47.6031 33.025H47.2112V30.1813H47.6031V33.025Z" fill="#B7B7B7"/>
<path d="M53.1867 33.0251H52.8693L52.834 32.6331C52.753 32.7713 52.6348 32.884 52.493 32.9584C52.3187 33.0528 52.1227 33.0994 51.9246 33.0937C51.6903 33.0957 51.4592 33.0391 51.2524 32.929C51.0388 32.8092 50.863 32.632 50.7448 32.4175C50.6095 32.171 50.5419 31.8931 50.5488 31.612C50.5421 31.3301 50.6141 31.0519 50.7566 30.8085C50.88 30.5931 51.0612 30.4166 51.2798 30.2989C51.4877 30.1897 51.7192 30.1332 51.954 30.1343C52.2373 30.1277 52.5156 30.2099 52.7497 30.3695C52.9703 30.5177 53.1335 30.737 53.2122 30.9908L52.8555 31.1436C52.8009 30.9515 52.6836 30.7832 52.5224 30.6654C52.3558 30.5498 52.1567 30.4901 51.954 30.4949C51.8225 30.4936 51.6921 30.5188 51.5706 30.569C51.449 30.6192 51.3388 30.6933 51.2465 30.7869C51.1434 30.897 51.0638 31.0269 51.0125 31.1688C50.9613 31.3106 50.9396 31.4615 50.9486 31.612C50.9392 31.763 50.9602 31.9144 51.0104 32.0571C51.0606 32.1998 51.1389 32.3311 51.2406 32.443C51.3308 32.5359 51.439 32.6092 51.5587 32.6585C51.6784 32.7077 51.807 32.7317 51.9364 32.7291C52.0703 32.7308 52.2034 32.7068 52.3283 32.6586C52.434 32.6169 52.5276 32.5495 52.6008 32.4626C52.6621 32.3908 52.7124 32.3102 52.7497 32.2235C52.782 32.1468 52.8018 32.0654 52.8085 31.9824H51.8286V31.6316H53.1867V33.0251Z" fill="#B7B7B7"/>
<path d="M58.5292 33.025H58.1216L56.587 30.7105V33.025H56.1951V30.1813H56.7183L58.1373 32.3606V30.1813H58.5292V33.025Z" fill="#B7B7B7"/>
<path d="M66.7957 33.025L66.439 32.6487C66.3444 32.7726 66.2241 32.8745 66.0865 32.9476C65.9488 33.0207 65.7969 33.0631 65.6413 33.0721C65.5321 33.0778 65.4228 33.0617 65.3198 33.0247C65.2168 32.9876 65.1223 32.9305 65.0416 32.8565C64.9718 32.7914 64.9162 32.7125 64.8784 32.6247C64.8406 32.537 64.8215 32.4424 64.8221 32.3469C64.8159 32.1952 64.8585 32.0454 64.9436 31.9197C65.05 31.7792 65.1776 31.6563 65.3219 31.5552L65.3611 31.5218L65.3101 31.467C65.2435 31.3964 65.1925 31.3396 65.1553 31.2965C65.1091 31.2353 65.069 31.1696 65.0358 31.1005C64.9934 31.0193 64.9706 30.9294 64.9691 30.8379C64.9652 30.7404 64.9832 30.6433 65.0219 30.5537C65.0606 30.4642 65.1189 30.3844 65.1925 30.3205C65.3321 30.194 65.5138 30.1241 65.7021 30.1245C65.9007 30.1189 66.0941 30.1889 66.243 30.3205C66.313 30.3838 66.3683 30.4617 66.4048 30.5488C66.4414 30.6358 66.4584 30.7298 66.4547 30.8241C66.4439 30.9526 66.4027 31.0766 66.3345 31.1859C66.2664 31.2953 66.1732 31.3869 66.0627 31.4532L65.9177 31.561L66.4468 32.1098L67.0799 31.4043V31.9216L66.6879 32.3665L67.3327 33.0309L66.7957 33.025ZM65.6413 32.7115C65.7376 32.7132 65.8321 32.6852 65.9118 32.6311C66.0081 32.5661 66.0952 32.4883 66.1705 32.3998L66.1823 32.3842L65.6061 31.7786L65.463 31.8864C65.3914 31.9334 65.3321 31.9969 65.2902 32.0716C65.2482 32.1463 65.2248 32.23 65.2219 32.3156C65.2234 32.419 65.2657 32.5176 65.3395 32.5899C65.3782 32.6306 65.4252 32.6625 65.4772 32.6835C65.5293 32.7045 65.5853 32.714 65.6413 32.7115V32.7115ZM65.3533 30.8104C65.3745 30.9636 65.452 31.1034 65.5708 31.2024L65.659 31.2984L65.855 31.1534C65.9161 31.1165 65.9673 31.0653 66.0042 31.0042C66.0411 30.9431 66.0625 30.8739 66.0666 30.8026C66.0676 30.7569 66.059 30.7115 66.0414 30.6694C66.0239 30.6272 65.9978 30.5891 65.9647 30.5576C65.9305 30.5245 65.8899 30.4986 65.8455 30.4815C65.801 30.4643 65.7536 30.4562 65.706 30.4577C65.6167 30.4573 65.5305 30.491 65.465 30.5517C65.4277 30.5833 65.3982 30.6231 65.3788 30.668C65.3595 30.7129 65.3507 30.7616 65.3533 30.8104V30.8104Z" fill="#B7B7B7"/>
<path d="M33.3925 37.515H32.4126V34.6752H33.4043C33.5818 34.6704 33.7586 34.7015 33.9239 34.7664C34.0892 34.8314 34.2398 34.929 34.3665 35.0535C34.5005 35.1915 34.6044 35.3557 34.6719 35.5358C34.7393 35.7159 34.7688 35.908 34.7585 36.1C34.7692 36.2909 34.7398 36.4819 34.6723 36.6608C34.6048 36.8397 34.5007 37.0025 34.3665 37.1387C34.2375 37.2632 34.0848 37.3607 33.9176 37.4253C33.7503 37.4899 33.5718 37.5204 33.3925 37.515V37.515ZM32.8046 37.1662H33.3925C33.5206 37.1699 33.6481 37.1473 33.7671 37.0997C33.8861 37.0522 33.994 36.9808 34.0843 36.8898C34.1798 36.7839 34.2533 36.6601 34.3004 36.5255C34.3475 36.3909 34.3673 36.2482 34.3587 36.1059C34.3682 35.962 34.3492 35.8176 34.3028 35.6811C34.2564 35.5445 34.1835 35.4185 34.0882 35.3102C33.9999 35.2175 33.8929 35.1444 33.7744 35.0958C33.6559 35.0471 33.5284 35.024 33.4003 35.028H32.8124L32.8046 37.1662Z" fill="#B7B7B7"/>
<path d="M39.4209 37.515H37.6943V34.6752H39.4209V35.0398H38.0863V35.9119H39.2975V36.2803H38.0863V37.1505H39.4209V37.515Z" fill="#B7B7B7"/>
<path d="M43.3779 37.0094L44.2422 34.6752H44.6557L43.5621 37.515H43.1702L42.1001 34.6752H42.5293L43.3779 37.0094Z" fill="#B7B7B7"/>
<path d="M49.1927 37.515H47.4661V34.6752H49.1927V35.0398H47.86V35.9119H49.0692V36.2803H47.86V37.1505H49.1927V37.515Z" fill="#B7B7B7"/>
<path d="M53.9237 37.515H52.1892V34.6752H52.5812V37.1466H53.9237V37.515Z" fill="#B7B7B7"/>
<path d="M56.4675 36.0922C56.4643 35.8763 56.5057 35.6622 56.589 35.4631C56.6621 35.2862 56.7724 35.1271 56.9124 34.9966C57.0461 34.8764 57.2001 34.7809 57.3671 34.7144C57.7046 34.5812 58.0801 34.5812 58.4176 34.7144C58.5848 34.7804 58.7388 34.876 58.8722 34.9966C59.0113 35.1302 59.119 35.2928 59.1878 35.4729C59.2718 35.6718 59.3139 35.886 59.3112 36.102C59.3173 36.3837 59.244 36.6615 59.0996 36.9035C58.974 37.1198 58.7908 37.2969 58.5704 37.415C58.3589 37.5261 58.1235 37.5841 57.8845 37.5841C57.6455 37.5841 57.4101 37.5261 57.1986 37.415C56.9776 37.2969 56.7938 37.1199 56.6674 36.9035C56.5254 36.6574 56.456 36.3761 56.4675 36.0922V36.0922ZM57.1672 35.269C56.9734 35.4999 56.8671 35.7917 56.8671 36.0931C56.8671 36.3946 56.9734 36.6864 57.1672 36.9172C57.3609 37.1069 57.6212 37.213 57.8923 37.213C58.1634 37.213 58.4237 37.1069 58.6175 36.9172C58.8113 36.6864 58.9175 36.3946 58.9175 36.0931C58.9175 35.7917 58.8113 35.4999 58.6175 35.269C58.4232 35.0804 58.1631 34.9748 57.8923 34.9748C57.6215 34.9748 57.3614 35.0804 57.1672 35.269Z" fill="#B7B7B7"/>
<path d="M63.3033 36.3528H62.6625V37.515H62.2705V34.6752H63.3033C63.4195 34.6708 63.5353 34.6896 63.644 34.7307C63.7528 34.7718 63.8522 34.8342 63.9364 34.9143C64.0162 34.9924 64.079 35.0862 64.1208 35.1897C64.1626 35.2933 64.1826 35.4043 64.1794 35.516C64.1831 35.6274 64.1634 35.7383 64.1216 35.8416C64.0797 35.9449 64.0166 36.0383 63.9364 36.1157C63.8521 36.1955 63.7526 36.2576 63.6439 36.2984C63.5351 36.3391 63.4193 36.3576 63.3033 36.3528ZM62.6625 36H63.2308C63.3761 36.0081 63.5193 35.962 63.6326 35.8707C63.6814 35.8266 63.7199 35.7723 63.7453 35.7117C63.7707 35.6511 63.7824 35.5856 63.7796 35.5199C63.7823 35.453 63.7706 35.3864 63.7453 35.3245C63.7199 35.2626 63.6815 35.2069 63.6326 35.1612C63.5204 35.0674 63.3768 35.0198 63.2308 35.028H62.6625V36Z" fill="#B7B7B7"/>
<path d="M70.1236 37.515H69.7316V35.3043L68.7634 37.515H68.3989L67.4366 35.3043V37.515H67.0447V34.6752H67.5778L68.5949 36.9859L69.6042 34.6752H70.1275L70.1236 37.515Z" fill="#B7B7B7"/>
<path d="M74.9742 37.515H73.2476V34.6752H74.9742V35.0398H73.6415V35.9119H74.8507V36.2803H73.6415V37.1505H74.9742V37.515Z" fill="#B7B7B7"/>
<path d="M80.3127 37.515H79.905L78.3705 35.1985V37.515H77.9785V34.6752H78.5037L79.9207 36.8448V34.6752H80.3127V37.515Z" fill="#B7B7B7"/>
<path d="M85.4082 35.0398H84.4577V37.515H84.0657V35.0398H83.1172V34.6752H85.4082V35.0398Z" fill="#B7B7B7"/>
<defs>
<linearGradient id="paint0_linear_10_173" x1="11.8266" y1="9.62864" x2="33.5317" y2="17.7149" gradientUnits="userSpaceOnUse">
<stop stop-color="#38EF7D"/>
<stop offset="1" stop-color="#6EF3A0"/>
</linearGradient>
<linearGradient id="paint1_linear_10_173" x1="76.5458" y1="22.344" x2="22.4958" y2="8.2999" gradientUnits="userSpaceOnUse">
<stop stop-color="#0A2E36"/>
<stop offset="1" stop-color="#3F5E5A"/>
</linearGradient>
</defs>
</svg>
